<!-- icon666.com - MILLIONS vector ICONS FREE --><svg xmlns="http://www.w3.org/2000/svg" xmlns:xlink="http://www.w3.org/1999/xlink" xml:space="preserve" style="shape-rendering:geometricPrecision;text-rendering:geometricPrecision;image-rendering:optimizeQuality;fill-rule:evenodd;clip-rule:evenodd" viewBox="0 0 28444 28444"><symbol id="Symbol6" viewBox="14201 14201 41 41"><circle fill="#373435" cx="14222" cy="14222" r="21"></circle></symbol><symbol id="Symbol22" viewBox="14172 14172 101 101"><circle fill="#FEFEFE" stroke-width="29.5276" cx="14222" cy="14222" r="36"></circle></symbol><symbol id="Symbol8" viewBox="14201 14201 41 41"><circle fill="#373435" cx="14222" cy="14222" r="21"></circle></symbol><symbol id="Symbol3" viewBox="14172 14172 101 101"><circle fill="#FEFEFE" stroke-width="29.5276" cx="14222" cy="14222" r="36"></circle></symbol><symbol id="Symbol12" viewBox="14201 14201 41 41"><circle fill="#373435" cx="14222" cy="14222" r="21"></circle></symbol><symbol id="Symbole1" viewBox="14201 14201 41 41"><circle fill="#373435" cx="14222" cy="14222" r="21"></circle></symbol><symbol id="Symbol19" viewBox="14172 14172 101 101"><circle fill="#FEFEFE" stroke-width="29.5276" cx="14222" cy="14222" r="36"></circle></symbol><symbol id="Symbol18" viewBox="14201 14201 41 41"><circle fill="#373435" cx="14222" cy="14222" r="21"></circle></symbol><symbol id="Symbol17" viewBox="14172 14172 101 101"><circle fill="#FEFEFE" stroke-width="29.5276" cx="14222" cy="14222" r="36"></circle></symbol><symbol id="Symbol10" viewBox="14201 14201 41 41"><circle fill="#373435" cx="14222" cy="14222" r="21"></circle></symbol><symbol id="Symbol16" viewBox="14201 14201 41 41"><circle fill="#373435" cx="14222" cy="14222" r="21"></circle></symbol><symbol id="Symbol11" viewBox="14172 14172 101 101"><circle fill="#FEFEFE" stroke-width="29.5276" cx="14222" cy="14222" r="36"></circle></symbol><symbol id="Symbol14" viewBox="14201 14201 41 41"><circle fill="#373435" cx="14222" cy="14222" r="21"></circle></symbol><symbol id="Symbol1" viewBox="14172 14172 101 101"><circle fill="#FEFEFE" stroke-width="29.5276" cx="14222" cy="14222" r="36"></circle></symbol><symbol id="Symbol23" viewBox="14201 14201 41 41"><circle fill="#373435" cx="14222" cy="14222" r="21"></circle></symbol><symbol id="Symbol13" viewBox="14172 14172 101 101"><circle fill="#FEFEFE" stroke-width="29.5276" cx="14222" cy="14222" r="36"></circle></symbol><symbol id="Symbol15" viewBox="14172 14172 101 101"><circle fill="#FEFEFE" stroke-width="29.5276" cx="14222" cy="14222" r="36"></circle></symbol><symbol id="Symbol2" viewBox="14201 14201 41 41"><circle fill="#373435" cx="14222" cy="14222" r="21"></circle></symbol><symbol id="Symbol7" viewBox="14172 14172 101 101"><circle fill="#FEFEFE" stroke-width="29.5276" cx="14222" cy="14222" r="36"></circle></symbol><symbol id="Symbol5" viewBox="14172 14172 101 101"><circle fill="#FEFEFE" stroke-width="29.5276" cx="14222" cy="14222" r="36"></circle></symbol><symbol id="villes" viewBox="14201 14201 41 41"><circle fill="#373435" cx="14222" cy="14222" r="21"></circle></symbol><symbol id="Symbol20" viewBox="14201 14201 41 41"><circle fill="#373435" cx="14222" cy="14222" r="21"></circle></symbol><symbol id="Symbol4" viewBox="14201 14201 41 41"><circle fill="#373435" cx="14222" cy="14222" r="21"></circle></symbol><symbol id="Capitale" viewBox="14172 14172 101 101"><circle fill="#FEFEFE" stroke-width="29.5276" cx="14222" cy="14222" r="36"></circle></symbol><symbol id="Symbol21" viewBox="14201 14201 41 41"><circle fill="#373435" cx="14222" cy="14222" r="21"></circle></symbol><symbol id="Symbol9" viewBox="14172 14172 101 101"><circle fill="#FEFEFE" stroke-width="29.5276" cx="14222" cy="14222" r="36"></circle></symbol><g id="Layer_x0020_1"><g id="_536186248"><polygon fill="#C8313E" points="3806,21167 24639,21167 24639,7278 3806,7278 "></polygon><polygon fill="#4AA657" points="3806,21167 24639,21167 24639,16537 3806,16537 "></polygon><polygon fill="#FFF" points="3806,21167 6120,21167 6120,7278 3806,7278 "></polygon><g fill="#C8313E"><path d="M4208 7278l302 0 0 228 101 0 0 228 101 0 0 228 101 0 0 228 101 0 0 228 -101 0 0 228 -101 0 0 228 -101 0 0 228 -101 0 0 228 -101 0 0 228 -101 0 0 -228 -101 0 0 -228 -101 0 0 -228 -101 0 0 -228 -101 0 0 -228 -101 0 0 -228 101 0 0 -228 101 0 0 -228 101 0 0 -228 101 0 0 -228zm101 455l101 0 0 228 101 0 0 228 101 0 0 228 -101 0 0 228 -101 0 0 228 -101 0 0 -228 -101 0 0 -228 -101 0 0 -228 101 0 0 -228 101 0 0 -228zm0 455l101 0 0 228 -101 0 0 -228zm-503 -683l101 0 0 228 -101 0 0 -228zm0 1366l101 0 0 228 -101 0 0 -228zm1107 -1594l60 0 0 455 -60 0 0 -455zm0 1594l60 0 0 455 -60 0 0 -455zm-906 455l101 0 0 228 101 0 0 228 101 0 0 228 -101 0 0 228 -101 0 0 228 -101 0 0 -228 -101 0 0 -228 -101 0 0 -228 101 0 0 -228 101 0 0 -228zm0 455l101 0 0 228 -101 0 0 -228zm604 -455l101 0 0 228 101 0 0 228 101 0 0 228 -101 0 0 228 -101 0 0 228 -101 0 0 -228 -101 0 0 -228 -101 0 0 -228 101 0 0 -228 101 0 0 -228zm0 455l101 0 0 228 -101 0 0 -228zm-805 911l101 0 0 228 -101 0 0 -228zm1107 -228l60 0 0 455 -60 0 0 -455z"/><path d="M3806 11376l101 0 0 -228 101 0 0 -228 101 0 0 -228 101 0 0 -228 101 0 0 -228 101 0 0 228 101 0 0 228 101 0 0 228 101 0 0 228 101 0 0 228 101 0 0 228 60 0 0 911 -60 0 0 228 -101 0 0 228 -101 0 0 228 -101 0 0 228 -101 0 0 228 -101 0 0 592 -201 0 0 -137 -101 0 0 -228 -101 0 0 -228 -101 0 0 -228 -101 0 0 -683 101 0 0 228 101 0 0 228 101 0 0 228 101 0 0 -228 101 0 0 -228 101 0 0 -228 101 0 0 -228 101 0 0 -228 101 0 0 -228 -101 0 0 -228 -101 0 0 -228 -302 0 0 228 201 0 0 228 -101 0 0 228 -101 0 0 228 -101 0 0 -228 -101 0 0 -228 -101 0 0 -228 -101 0 0 -455zm0 911l101 0 0 228 -101 0 0 -228zm1107 683l60 0 0 228 -60 0 0 -228zm-201 455l101 0 0 228 101 0 0 228 60 0 0 364 -60 0 0 -137 -101 0 0 -228 -101 0 0 -455zm-201 683l101 0 0 137 -101 0 0 -137z"/><path d="M5718 7278l-302 0 0 228 -101 0 0 228 -101 0 0 228 -101 0 0 228 -101 0 0 228 101 0 0 228 101 0 0 228 101 0 0 228 101 0 0 228 101 0 0 228 101 0 0 -228 101 0 0 -228 101 0 0 -228 101 0 0 -228 101 0 0 -228 101 0 0 -228 -101 0 0 -228 -101 0 0 -228 -101 0 0 -228 -101 0 0 -228zm-101 455l-101 0 0 228 -101 0 0 228 -101 0 0 228 101 0 0 228 101 0 0 228 101 0 0 -228 101 0 0 -228 101 0 0 -228 -101 0 0 -228 -101 0 0 -228zm0 455l-101 0 0 228 101 0 0 -228zm503 -683l-101 0 0 228 101 0 0 -228zm0 1366l-101 0 0 228 101 0 0 -228zm-1107 -1594l-60 0 0 455 60 0 0 -455zm0 1594l-60 0 0 455 60 0 0 -455zm906 455l-101 0 0 228 -101 0 0 228 -101 0 0 228 101 0 0 228 101 0 0 228 101 0 0 -228 101 0 0 -228 101 0 0 -228 -101 0 0 -228 -101 0 0 -228zm0 455l-101 0 0 228 101 0 0 -228zm-604 -455l-101 0 0 228 -101 0 0 228 -101 0 0 228 101 0 0 228 101 0 0 228 101 0 0 -228 101 0 0 -228 101 0 0 -228 -101 0 0 -228 -101 0 0 -228zm0 455l-101 0 0 228 101 0 0 -228zm805 911l-101 0 0 228 101 0 0 -228zm-1107 -228l-60 0 0 455 60 0 0 -455z"/><path d="M6120 11376l-101 0 0 -228 -101 0 0 -228 -101 0 0 -228 -101 0 0 -228 -101 0 0 -228 -101 0 0 228 -101 0 0 228 -101 0 0 228 -101 0 0 228 -101 0 0 228 -101 0 0 228 -60 0 0 911 60 0 0 228 101 0 0 228 101 0 0 228 101 0 0 228 101 0 0 228 101 0 0 592 201 0 0 -137 101 0 0 -228 101 0 0 -228 101 0 0 -228 101 0 0 -683 -101 0 0 228 -101 0 0 228 -101 0 0 228 -101 0 0 -228 -101 0 0 -228 -101 0 0 -228 -101 0 0 -228 -101 0 0 -228 -101 0 0 -228 101 0 0 -228 101 0 0 -228 302 0 0 228 -201 0 0 228 101 0 0 228 101 0 0 228 101 0 0 -228 101 0 0 -228 101 0 0 -228 101 0 0 -455zm0 911l-101 0 0 228 101 0 0 -228zm-1107 683l-60 0 0 228 60 0 0 -228zm201 455l-101 0 0 228 -101 0 0 228 -60 0 0 364 60 0 0 -137 101 0 0 -228 101 0 0 -455zm201 683l-101 0 0 137 101 0 0 -137z"/><path d="M4208 21167l302 0 0 -228 101 0 0 -228 101 0 0 -228 101 0 0 -228 101 0 0 -228 -101 0 0 -228 -101 0 0 -228 -101 0 0 -228 -101 0 0 -228 -101 0 0 -228 -101 0 0 228 -101 0 0 228 -101 0 0 228 -101 0 0 228 -101 0 0 228 -101 0 0 228 101 0 0 228 101 0 0 228 101 0 0 228 101 0 0 228zm101 -455l101 0 0 -228 101 0 0 -228 101 0 0 -228 -101 0 0 -228 -101 0 0 -228 -101 0 0 228 -101 0 0 228 -101 0 0 228 101 0 0 228 101 0 0 228zm0 -455l101 0 0 -228 -101 0 0 228zm-503 683l101 0 0 -228 -101 0 0 228zm0 -1366l101 0 0 -228 -101 0 0 228zm1107 1594l60 0 0 -455 -60 0 0 455zm0 -1594l60 0 0 -455 -60 0 0 455zm-906 -455l101 0 0 -228 101 0 0 -228 101 0 0 -228 -101 0 0 -228 -101 0 0 -228 -101 0 0 228 -101 0 0 228 -101 0 0 228 101 0 0 228 101 0 0 228zm0 -455l101 0 0 -228 -101 0 0 228zm604 455l101 0 0 -228 101 0 0 -228 101 0 0 -228 -101 0 0 -228 -101 0 0 -228 -101 0 0 228 -101 0 0 228 -101 0 0 228 101 0 0 228 101 0 0 228zm0 -455l101 0 0 -228 -101 0 0 228zm-805 -911l101 0 0 -228 -101 0 0 228zm1107 228l60 0 0 -455 -60 0 0 455z"/><path d="M3806 17068l101 0 0 228 101 0 0 228 101 0 0 228 101 0 0 228 101 0 0 228 101 0 0 -228 101 0 0 -228 101 0 0 -228 101 0 0 -228 101 0 0 -228 101 0 0 -228 60 0 0 -911 -60 0 0 -228 -101 0 0 -228 -101 0 0 -228 -101 0 0 -228 -101 0 0 -228 -101 0 0 -592 -201 0 0 137 -101 0 0 228 -101 0 0 228 -101 0 0 228 -101 0 0 683 101 0 0 -228 101 0 0 -228 101 0 0 -228 101 0 0 228 101 0 0 228 101 0 0 228 101 0 0 228 101 0 0 228 101 0 0 228 -101 0 0 228 -101 0 0 228 -302 0 0 -228 201 0 0 -228 -101 0 0 -228 -101 0 0 -228 -101 0 0 228 -101 0 0 228 -101 0 0 228 -101 0 0 455zm0 -911l101 0 0 -228 -101 0 0 228zm1107 -683l60 0 0 -228 -60 0 0 228zm-201 -455l101 0 0 -228 101 0 0 -228 60 0 0 -364 -60 0 0 137 -101 0 0 228 -101 0 0 455zm-201 -683l101 0 0 -137 -101 0 0 137z"/><path d="M5718 21167l-302 0 0 -228 -101 0 0 -228 -101 0 0 -228 -101 0 0 -228 -101 0 0 -228 101 0 0 -228 101 0 0 -228 101 0 0 -228 101 0 0 -228 101 0 0 -228 101 0 0 228 101 0 0 228 101 0 0 228 101 0 0 228 101 0 0 228 101 0 0 228 -101 0 0 228 -101 0 0 228 -101 0 0 228 -101 0 0 228zm-101 -455l-101 0 0 -228 -101 0 0 -228 -101 0 0 -228 101 0 0 -228 101 0 0 -228 101 0 0 228 101 0 0 228 101 0 0 228 -101 0 0 228 -101 0 0 228zm0 -455l-101 0 0 -228 101 0 0 228zm503 683l-101 0 0 -228 101 0 0 228zm0 -1366l-101 0 0 -228 101 0 0 228zm-1107 1594l-60 0 0 -455 60 0 0 455zm0 -1594l-60 0 0 -455 60 0 0 455zm906 -455l-101 0 0 -228 -101 0 0 -228 -101 0 0 -228 101 0 0 -228 101 0 0 -228 101 0 0 228 101 0 0 228 101 0 0 228 -101 0 0 228 -101 0 0 228zm0 -455l-101 0 0 -228 101 0 0 228zm-604 455l-101 0 0 -228 -101 0 0 -228 -101 0 0 -228 101 0 0 -228 101 0 0 -228 101 0 0 228 101 0 0 228 101 0 0 228 -101 0 0 228 -101 0 0 228zm0 -455l-101 0 0 -228 101 0 0 228zm805 -911l-101 0 0 -228 101 0 0 228zm-1107 228l-60 0 0 -455 60 0 0 455z"/><path d="M6120 17068l-101 0 0 228 -101 0 0 228 -101 0 0 228 -101 0 0 228 -101 0 0 228 -101 0 0 -228 -101 0 0 -228 -101 0 0 -228 -101 0 0 -228 -101 0 0 -228 -101 0 0 -228 -60 0 0 -911 60 0 0 -228 101 0 0 -228 101 0 0 -228 101 0 0 -228 101 0 0 -228 101 0 0 -592 201 0 0 137 101 0 0 228 101 0 0 228 101 0 0 228 101 0 0 683 -101 0 0 -228 -101 0 0 -228 -101 0 0 -228 -101 0 0 228 -101 0 0 228 -101 0 0 228 -101 0 0 228 -101 0 0 228 -101 0 0 228 101 0 0 228 101 0 0 228 302 0 0 -228 -201 0 0 -228 101 0 0 -228 101 0 0 -228 101 0 0 228 101 0 0 228 101 0 0 228 101 0 0 455zm0 -911l-101 0 0 -228 101 0 0 228zm-1107 -683l-60 0 0 -228 60 0 0 228zm201 -455l-101 0 0 -228 -101 0 0 -228 -60 0 0 -364 60 0 0 137 101 0 0 228 101 0 0 455zm201 -683l-101 0 0 -137 101 0 0 137z"/></g></g></g></svg>