<svg width="30" height="30" viewBox="0 0 30 30" fill="none" xmlns="http://www.w3.org/2000/svg">
<path fill-rule="evenodd" clip-rule="evenodd" d="M0.714062 3.05141H5.53891L9.81795 16.5079L9.60303 16.586C8.85351 16.8574 8.22364 17.3843 7.82412 18.0741C7.4246 18.7639 7.28099 19.5724 7.41854 20.3576C7.55609 21.1428 7.966 21.8544 8.57621 22.3673C9.18642 22.8802 9.9579 23.1616 10.755 23.1621H23.9448L26.5916 24.6942C26.7007 24.7568 26.8242 24.7902 26.9501 24.7909C27.1074 24.791 27.2603 24.7392 27.3853 24.6435C27.5102 24.5479 27.6 24.4137 27.6409 24.2618C27.6818 24.1099 27.6714 23.9487 27.6114 23.8033C27.5513 23.6579 27.445 23.5363 27.3089 23.4574L24.4936 21.8285C24.3849 21.7657 24.2616 21.7328 24.1362 21.733H10.755C10.2351 21.733 9.73646 21.5264 9.3688 21.1588C9.00115 20.7911 8.79461 20.2925 8.79461 19.7725C8.79461 19.2526 9.00115 18.754 9.3688 18.3863C9.73646 18.0187 10.2351 17.8121 10.755 17.8121H25.8405C25.9921 17.8122 26.1398 17.7641 26.2622 17.6746C26.3845 17.5852 26.4752 17.4591 26.5212 17.3146L29.9665 6.47885C30.0007 6.37198 30.0091 6.25853 29.9911 6.14777C29.973 6.03702 29.929 5.93212 29.8626 5.84165C29.7962 5.75119 29.7093 5.67774 29.6091 5.62731C29.5088 5.57689 29.3981 5.55092 29.2858 5.55154H7.83191L6.74207 2.11947C6.69615 1.97503 6.60543 1.84896 6.48305 1.75953C6.36068 1.6701 6.21301 1.62195 6.06144 1.62207H0.714062C0.52568 1.62378 0.345593 1.69981 0.212986 1.83362C0.0803788 1.96743 0.00598145 2.1482 0.00598145 2.33659C0.00598145 2.52498 0.0803788 2.70575 0.212986 2.83956C0.345593 2.97338 0.52568 3.04941 0.714062 3.05111V3.05141ZM21.8645 28.3776C21.3938 28.3774 20.9338 28.2377 20.5425 27.9762C20.1512 27.7147 19.8461 27.3431 19.6659 26.9083C19.4857 26.4735 19.4384 25.9951 19.5299 25.5334C19.6215 25.0718 19.8478 24.6476 20.1803 24.3145C20.5128 23.9814 20.9366 23.7543 21.3981 23.662C21.8596 23.5696 22.3381 23.6161 22.7732 23.7955C23.2083 23.9749 23.5805 24.2793 23.8427 24.6702C24.1049 25.061 24.2453 25.5208 24.2464 25.9914C24.2467 26.3045 24.1854 26.6146 24.0659 26.904C23.9463 27.1934 23.771 27.4564 23.5498 27.678C23.3286 27.8996 23.0659 28.0754 22.7767 28.1954C22.4876 28.3155 22.1776 28.3774 21.8645 28.3776ZM12.9225 28.3776C12.4518 28.3773 11.9918 28.2376 11.6006 27.9761C11.2093 27.7145 10.9043 27.3429 10.7241 26.9081C10.544 26.4733 10.4967 25.9949 10.5883 25.5332C10.6799 25.0716 10.9062 24.6475 11.2387 24.3144C11.5713 23.9813 11.995 23.7543 12.4565 23.6619C12.918 23.5696 13.3965 23.6161 13.8316 23.7955C14.2667 23.975 14.6388 24.2794 14.901 24.6702C15.1632 25.061 15.3036 25.5208 15.3047 25.9914C15.305 26.6237 15.0543 27.2302 14.6076 27.6777C14.1609 28.1251 13.5547 28.3769 12.9225 28.3776Z" fill="currentColor"/>
</svg>
