<svg width="30" height="30" viewBox="0 0 30 30" fill="none" xmlns="http://www.w3.org/2000/svg">
<g fill="currentColor">
<path d="M0 1C0 0.447716 0.447715 0 1 0H12.5C13.0523 0 13.5 0.447715 13.5 1V12.5C13.5 13.0523 13.0523 13.5 12.5 13.5H1C0.447716 13.5 0 13.0523 0 12.5V1Z"/>
<path d="M0 17.5C0 16.9477 0.447715 16.5 1 16.5H12.5C13.0523 16.5 13.5 16.9477 13.5 17.5V29C13.5 29.5523 13.0523 30 12.5 30H1C0.447716 30 0 29.5523 0 29V17.5Z"/>
<path d="M16.5 1C16.5 0.447716 16.9477 0 17.5 0H29C29.5523 0 30 0.447715 30 1V12.5C30 13.0523 29.5523 13.5 29 13.5H17.5C16.9477 13.5 16.5 13.0523 16.5 12.5V1Z"/>
<path d="M16.5 17.5C16.5 16.9477 16.9477 16.5 17.5 16.5H29C29.5523 16.5 30 16.9477 30 17.5V29C30 29.5523 29.5523 30 29 30H17.5C16.9477 30 16.5 29.5523 16.5 29V17.5Z"/>
</g>
</svg>
