<svg width="30" height="30" viewBox="0 0 30 30" fill="none" xmlns="http://www.w3.org/2000/svg">
<path fill-rule="evenodd" clip-rule="evenodd" d="M1.25628e-05 15C3.45357e-06 18.4703 1.20328 21.8333 3.40483 24.5159C5.60638 27.1985 8.66998 29.0348 12.0736 29.7118C15.4773 30.3888 19.0104 29.8648 22.0709 28.2289C25.1315 26.593 27.5301 23.9465 28.8582 20.7403C30.1862 17.5341 30.3615 13.9667 29.3541 10.6458C28.3468 7.32488 26.2191 4.45601 23.3336 2.528C20.4481 0.599978 16.9834 -0.267895 13.5298 0.0722497C10.0762 0.412395 6.84733 1.93951 4.39343 4.3934C2.99847 5.78474 1.89222 7.43803 1.13825 9.25826C0.384282 11.0785 -0.00254122 13.0298 1.25628e-05 15ZM19.3992 21.3036L13.3079 16.3293C13.254 16.2855 13.2105 16.2302 13.1807 16.1675C13.1509 16.1048 13.1354 16.0362 13.1355 15.9667H13.134V6.21403C13.134 6.08971 13.1834 5.97048 13.2713 5.88257C13.3592 5.79466 13.4784 5.74528 13.6027 5.74528C13.727 5.74528 13.8463 5.79466 13.9342 5.88257C14.0221 5.97048 14.0715 6.08971 14.0715 6.21403V15.7462L19.9889 20.5785C20.0365 20.6172 20.076 20.6649 20.1052 20.7189C20.1343 20.7729 20.1526 20.8321 20.1589 20.8932C20.1652 20.9542 20.1594 21.0159 20.1418 21.0747C20.1243 21.1335 20.0953 21.1883 20.0566 21.2359C20.0179 21.2835 19.9702 21.323 19.9162 21.3522C19.8622 21.3814 19.803 21.3996 19.7419 21.4059C19.6809 21.4122 19.6192 21.4064 19.5604 21.3888C19.5016 21.3713 19.4468 21.3423 19.3992 21.3036Z" fill="currentColor"/>
</svg>
