<svg width="30" height="30" viewBox="0 0 30 30" fill="none" xmlns="http://www.w3.org/2000/svg">
<path d="M8.65465 19.9343L11.5032 15.0004L8.65465 10.0668H1.875C1.37772 10.0668 0.900806 9.86927 0.549175 9.51764C0.197544 9.16601 0 8.6891 0 8.19182C0 7.69454 0.197544 7.21762 0.549175 6.86599C0.900806 6.51436 1.37772 6.31682 1.875 6.31682H9.73723C10.0664 6.31682 10.3897 6.40345 10.6747 6.56802C10.9598 6.73258 11.1965 6.96928 11.361 7.25432L13.6683 11.2504L15.3836 8.27942C15.725 7.67987 16.2199 7.18204 16.8174 6.83707C17.4149 6.4921 18.0935 6.31243 18.7834 6.31653H23.5984L23.187 5.90514C23.0112 5.73142 22.8714 5.52464 22.7758 5.2967C22.6801 5.06876 22.6305 4.82417 22.6298 4.57698C22.629 4.3298 22.6772 4.0849 22.7714 3.85639C22.8657 3.62787 23.0042 3.42025 23.1789 3.24546C23.3537 3.07068 23.5613 2.93218 23.7899 2.83793C24.0184 2.74368 24.2633 2.69555 24.5105 2.6963C24.7576 2.69705 25.0022 2.74667 25.2302 2.8423C25.4581 2.93793 25.6649 3.07769 25.8386 3.25354L29.4508 6.86573C29.6249 7.03983 29.763 7.24653 29.8573 7.47402C29.9515 7.70151 30 7.94533 30 8.19156C30 8.43779 29.9515 8.6816 29.8573 8.90909C29.763 9.13658 29.6249 9.34328 29.4508 9.51739L25.8386 13.1296C25.6647 13.3048 25.458 13.4439 25.2302 13.539C25.0024 13.6342 24.7581 13.6834 24.5113 13.6838C24.2645 13.6843 24.02 13.636 23.7918 13.5418C23.5637 13.4475 23.3564 13.3092 23.1819 13.1346C23.0073 12.9601 22.869 12.7528 22.7747 12.5247C22.6805 12.2965 22.6322 12.052 22.6327 11.8052C22.6332 11.5584 22.6824 11.3141 22.7775 11.0863C22.8726 10.8585 23.0118 10.6518 23.187 10.4779L23.5984 10.0665H18.7834C18.7518 10.0614 18.7193 10.0673 18.6916 10.0833C18.6638 10.0993 18.6424 10.1245 18.6311 10.1544L15.8334 15.0004L18.6312 19.8461C18.6426 19.8761 18.664 19.9012 18.6917 19.9172C18.7195 19.9332 18.7519 19.9392 18.7836 19.934H23.5986L23.1872 19.5226C22.8378 19.1705 22.6421 18.6943 22.6431 18.1983C22.644 17.7023 22.8415 17.2268 23.1922 16.8761C23.543 16.5253 24.0184 16.3278 24.5145 16.3269C25.0105 16.3259 25.4867 16.5216 25.8388 16.871L29.451 20.4831C29.6251 20.6573 29.7632 20.864 29.8574 21.0914C29.9517 21.3189 30.0002 21.5627 30.0002 21.809C30.0002 22.0552 29.9517 22.299 29.8574 22.5265C29.7632 22.754 29.6251 22.9607 29.451 23.1348L25.8386 26.7473C25.6649 26.9231 25.4581 27.0629 25.2302 27.1585C25.0022 27.2542 24.7576 27.3038 24.5105 27.3045C24.2633 27.3053 24.0184 27.2571 23.7899 27.1629C23.5613 27.0686 23.3537 26.9301 23.1789 26.7554C23.0042 26.5806 22.8657 26.373 22.7714 26.1444C22.6772 25.9159 22.629 25.671 22.6298 25.4238C22.6305 25.1767 22.6801 24.9321 22.7758 24.7041C22.8714 24.4762 23.0112 24.2694 23.187 24.0957L23.5984 23.6843H18.7834C18.0935 23.6884 17.4149 23.5087 16.8174 23.1638C16.2199 22.8188 15.725 22.321 15.3836 21.7214L13.6683 18.7504L11.361 22.7465C11.1965 23.0315 10.9598 23.2682 10.6747 23.4328C10.3897 23.5974 10.0664 23.684 9.73723 23.684H1.875C1.37772 23.684 0.900806 23.4865 0.549175 23.1348C0.197544 22.7832 0 22.3063 0 21.809C0 21.3117 0.197544 20.8348 0.549175 20.4832C0.900806 20.1315 1.37772 19.934 1.875 19.934L8.65465 19.9343Z" fill="currentColor"/>
</svg>
