<?xml version="1.0" encoding="UTF-8"?>
<svg width="74.54" height="25" fill="none" version="1.1" viewBox="0 0 74.54 25" xmlns="http://www.w3.org/2000/svg">
 <rect width="74.54" height="25" rx="5" fill="#0749aa"/>
 <g clip-rule="evenodd" fill="#fff" fill-rule="evenodd">
  <path d="m34.47 14.54c-0.0701 1.301-0.4584 2.29-1.159 2.979-0.6956 0.6886-1.688 1.03-2.966 1.03s-2.308-0.4591-3.063-1.382c-0.755-0.9282-1.138-2.183-1.138-3.764v-2.198c0-1.576 0.3882-2.821 1.159-3.739 0.7819-0.9181 1.844-1.372 3.187-1.372 1.24 0 2.195 0.3519 2.869 1.056 0.6795 0.6988 1.052 1.698 1.111 3.004h-1.628c-0.0701-0.9895-0.2912-1.693-0.6578-2.117-0.3721-0.4233-0.9329-0.6324-1.688-0.6324-0.8736 0-1.548 0.3264-2.017 0.9742-0.469 0.6427-0.7063 1.591-0.7063 2.841v2.224c0 1.224 0.2156 2.168 0.6524 2.821 0.4421 0.6528 1.078 0.9843 1.92 0.9843s1.445-0.1989 1.812-0.5917c0.372-0.3926 0.5986-1.102 0.6848-2.122h1.628zm4.637 0.0255 0.1671 1.357 0.2534-1.199 2.049-8.457h1.348l1.99 8.457 0.2534 1.234 0.1834-1.398 1.564-8.293h1.612l-2.55 12.12h-1.45l-2.141-8.834-0.1294-0.714-0.1294 0.714-2.216 8.834h-1.461l-2.545-12.12h1.612zm17.43-1.78h-4.535v4.295h5.279v1.306h-6.891v-12.12h6.805v1.316h-5.193v3.897h4.535zm2.815 5.6v-12.12h3.651c1.17 0 2.044 0.2703 2.631 0.8059 0.5932 0.5406 0.8899 1.346 0.8899 2.423 0 0.5662-0.1511 1.066-0.4477 1.5-0.3019 0.4335-0.7064 0.7701-1.213 1.005 0.5877 0.1683 1.052 0.51 1.391 1.025 0.3451 0.5151 0.5176 1.137 0.5176 1.867 0 1.086-0.3181 1.943-0.949 2.565-0.6255 0.6223-1.526 0.9334-2.691 0.9334h-3.774zm1.612-5.667v4.361h2.2c0.6093 0 1.095-0.1888 1.45-0.5661 0.356-0.3826 0.5393-0.9181 0.5393-1.607 0-1.459-0.6525-2.188-1.952-2.188zm0-1.28h2.071c0.5553 0 1.008-0.1785 1.348-0.5304 0.3452-0.3571 0.5177-0.8263 0.5177-1.413 0-0.6682-0.1564-1.148-0.4637-1.449-0.3128-0.306-0.7873-0.459-1.424-0.459h-2.044v3.856z"/>
  <path d="m14.96 3.473 7.231 9.028-7.231 9.028-7.231-9.028z"/>
 </g>
</svg>
