<svg width="30" height="30" viewBox="0 0 30 30" fill="none" xmlns="http://www.w3.org/2000/svg">
<path fill-rule="evenodd" clip-rule="evenodd" d="M29.959 5.66014L15.3105 16.9001C15.2236 16.9694 15.116 17.0077 15.0048 17.0088C14.8936 17.01 14.7852 16.974 14.6968 16.9065L0.0410156 5.66014C0.0138262 5.75726 2.68891e-05 5.85764 0 5.9585L0 24.0416C0.000804113 24.337 0.11849 24.62 0.327338 24.8289C0.536187 25.0377 0.819215 25.1554 1.11457 25.1562H28.8854C29.1808 25.1554 29.4638 25.0377 29.6727 24.8289C29.8815 24.62 29.9992 24.337 30 24.0416V5.95832C30 5.85746 29.9862 5.75726 29.959 5.66014ZM0.713613 4.91869C0.841456 4.86904 0.977425 4.84363 1.11457 4.84375H28.8854C29.0226 4.84363 29.1585 4.86904 29.2864 4.91869L15 15.8811L0.713613 4.91869Z" fill="currentColor"/>
</svg>
