<svg width="20" height="20" viewBox="0 0 20 20" fill="none" xmlns="http://www.w3.org/2000/svg">
<path d="M19.2857 9.99908C19.2857 4.87072 15.1284 0.71335 10 0.71335C4.87166 0.71335 0.714294 4.87072 0.714294 9.99908C0.714294 14.3539 3.71228 18.0079 7.75681 19.0114V12.8366H5.84202V9.99908H7.75681V8.77637C7.75681 5.61581 9.18711 4.15089 12.29 4.15089C12.8783 4.15089 13.8934 4.26622 14.3086 4.38158V6.95388C14.0895 6.93081 13.7088 6.91926 13.2359 6.91926C11.7133 6.91926 11.125 7.49602 11.125 8.99555V9.99908H14.158L13.637 12.8366H11.125V19.2168C15.7227 18.6615 19.2857 14.7466 19.2857 9.99908Z" fill="currentColor"/>
</svg>
