<svg width="180" height="180" viewBox="0 0 180 180" fill="none" xmlns="http://www.w3.org/2000/svg">
<path fill-rule="evenodd" clip-rule="evenodd" d="M0 84.0171C0.7901 71.9296 3.96355 60.4911 9.05138 50.1684L40.0908 68.0894C42.6996 69.5955 44.1942 72.1833 44.1942 75.1972V75.8095C44.1942 80.3295 40.5071 84.0167 35.9885 84.0167L0 84.0171ZM9.04675 129.818C3.96061 119.499 0.791786 108.067 0 95.9825H35.989C40.5075 95.9825 44.1947 99.6681 44.1947 104.188V104.788C44.1947 107.803 42.7 110.389 40.0912 111.895L9.04675 129.818ZM39.8063 164.954C30.0306 158.393 21.6075 149.97 15.0465 140.195L46.0976 122.266C48.7064 120.758 51.694 120.758 54.3062 122.266L54.8068 122.557C58.7228 124.817 60.0708 129.853 57.8109 133.767L39.8063 164.954ZM84.0174 180C71.9354 179.208 60.5001 176.039 50.1812 170.952L68.1973 139.751C70.4555 135.835 75.4911 134.486 79.407 136.746L79.9139 137.039C82.5244 138.545 84.0174 141.133 84.0174 144.145V180ZM129.819 170.953C119.5 176.041 108.066 179.208 95.9826 180V144.146C95.9826 141.134 97.4773 138.546 100.086 137.04L100.593 136.746C104.509 134.487 109.544 135.835 111.804 139.751L129.819 170.953ZM164.96 140.184C158.401 149.965 149.973 158.391 140.194 164.954L122.188 133.767C119.93 129.853 121.278 124.817 125.192 122.557L125.709 122.259C128.318 120.753 131.305 120.753 133.915 122.259L164.96 140.184ZM180 95.9808C179.208 108.07 176.036 119.505 170.947 129.831L139.909 111.909C137.299 110.402 135.806 107.815 135.806 104.804V104.188C135.806 99.6681 139.493 95.9825 144.011 95.9825L180 95.9808ZM170.953 50.1798C176.041 60.4991 179.207 71.933 180 84.0171H144.011C139.493 84.0171 135.805 80.3299 135.805 75.8099V75.209C135.805 72.1951 137.298 69.6106 139.911 68.1029L170.953 50.1798ZM140.194 15.0453C149.969 21.6036 158.393 30.0283 164.954 39.8061L133.904 57.7321C131.294 59.2399 128.306 59.2399 125.695 57.7321L125.192 57.4422C121.278 55.1806 119.93 50.1452 122.188 46.2308L140.194 15.0453ZM96.007 0C108.081 0.795187 119.504 3.96206 129.818 9.04544L111.804 40.249C109.544 44.1634 104.509 45.5132 100.593 43.2515L100.109 42.9734C97.5005 41.4673 96.0075 38.8794 96.0075 35.8673L96.007 0ZM50.1812 9.04544C60.4955 3.96375 71.919 0.795187 83.9942 0V35.8669C83.9942 38.879 82.4995 41.4669 79.8907 42.973L79.407 43.2511C75.4911 45.5127 70.4559 44.163 68.1973 40.2486L50.1812 9.04544ZM15.0418 39.8158C21.5999 30.0329 30.0276 21.6066 39.8067 15.0453L57.8114 46.2308C60.0712 50.1452 58.7232 55.1806 54.8072 57.4422L54.2919 57.7385C51.6814 59.2446 48.6955 59.2446 46.0863 57.7385L15.0418 39.8158Z" fill="#1B40F0"/>
<path d="M100.863 64.0283C101.034 63.2469 100.085 62.7268 99.5294 63.2968L69.3004 94.1533C68.8088 94.6573 69.1623 95.5103 69.8629 95.5103L85.4124 90.3862C85.5197 90.3508 85.6642 90.545 85.6401 90.6554L80.0516 116.231C79.8808 117.012 80.8289 117.532 81.385 116.962L111.614 86.1057C112.106 85.6017 111.752 84.7487 111.051 84.7487L95.5019 89.8728C95.3947 89.9082 95.2501 89.714 95.2742 89.6036L100.863 64.0283Z" fill="#1B40F0"/>
</svg>
