<?xml version="1.0" encoding="UTF-8"?>
<svg width="1920" height="579" fill="none" version="1.1" viewBox="0 0 1920 579" xml:space="preserve" xmlns="http://www.w3.org/2000/svg"><g fill="#1b40f0" fill-opacity=".2"><path d="m1369 137.2c0.1917-0.876-0.8721-1.459-1.495-0.82l-33.89 34.59c-0.5511 0.565-0.1548 1.521 0.6306 1.521l17.43-5.744c0.1203-0.0397 0.2822 0.178 0.2552 0.3018l-6.265 28.67c-0.1915 0.8755 0.8714 1.458 1.495 0.8195l33.89-34.59c0.5516-0.565 0.1547-1.521-0.6311-1.521l-17.43 5.744c-0.1202 0.0397-0.2823-0.178-0.2553-0.3018z"/><path d="m525.8 89.66c0.3986-1.821-1.814-3.034-3.109-1.705l-70.47 71.93c-1.146 1.175-0.3219 3.163 1.311 3.163l36.25-11.94c0.2501-0.0825 0.587 0.3702 0.5308 0.6275l-13.03 59.62c-0.3981 1.821 1.812 3.033 3.108 1.704l70.47-71.93c1.147-1.175 0.3217-3.163-1.312-3.163l-36.25 11.94c-0.2499 0.0825-0.587-0.3702-0.5308-0.6275z"/><path d="m193.5 331.3c0.7972-3.643-3.627-6.068-6.217-3.41l-140.9 143.9c-2.292 2.35-0.6438 6.326 2.622 6.326l72.49-23.89c0.5002-0.165 1.174 0.7403 1.062 1.255l-26.05 119.2c-0.7963 3.641 3.624 6.065 6.216 3.408l140.9-143.9c2.294-2.35 0.6434-6.326-2.625-6.326l-72.49 23.89c-0.4998 0.165-1.174-0.7404-1.062-1.255z"/><path d="m17.17 24.24c0.1917-0.876-0.8722-1.459-1.495-0.82l-33.89 34.59c-0.5511 0.565-0.1548 1.521 0.6306 1.521l17.43-5.744c0.1203-0.03968 0.2823 0.178 0.2553 0.3018l-6.265 28.67c-0.1915 0.8755 0.8714 1.458 1.495 0.8195l33.89-34.59c0.5516-0.565 0.1547-1.521-0.6311-1.521l-17.43 5.744c-0.1202 0.03968-0.2823-0.178-0.2553-0.3018z"/><path d="m1920 187.7c0.3986-1.822-1.814-3.034-3.109-1.705l-70.47 71.93c-1.146 1.175-0.3218 3.163 1.311 3.163l36.25-11.94c0.2502-0.0824 0.5869 0.3702 0.5308 0.6275l-13.03 59.62c-0.3981 1.821 1.812 3.033 3.108 1.704l70.47-71.93c1.147-1.175 0.3218-3.163-1.312-3.163l-36.25 11.94c-0.2499 0.0826-0.587-0.3702-0.5308-0.6275z"/><path d="m1595 450.9c0.5933-2.711-2.7-4.516-4.627-2.538l-104.9 107.1c-1.706 1.749-0.4792 4.709 1.952 4.709l53.96-17.78c0.3724-0.1228 0.8738 0.551 0.7901 0.9341l-19.39 88.74c-0.5927 2.71 2.697 4.514 4.627 2.536l104.9-107.1c1.707-1.749 0.4788-4.709-1.954-4.709l-53.95 17.78c-0.372 0.1228-0.8737-0.551-0.7901-0.9341z"/></g></svg>
