<svg width="30" height="30" viewBox="0 0 30 30" fill="none" xmlns="http://www.w3.org/2000/svg">
<path fill-rule="evenodd" clip-rule="evenodd" d="M14.6942 28.1326C11.7339 26.4514 7.83101 23.4134 4.80757 20.0128C2.40136 17.3064 0.53755 14.352 0.104894 11.6232C-0.185199 9.78944 0.132408 7.91109 1.00928 6.27461C1.88616 4.63814 3.27418 3.33334 4.96168 2.55921C6.64919 1.78507 8.54357 1.58407 10.356 1.98686C12.1683 2.38965 13.7993 3.37412 15 4.79015C16.2008 3.37412 17.8317 2.38965 19.6441 1.98686C21.4565 1.58407 23.3508 1.78507 25.0383 2.55921C26.7258 3.33334 28.1139 4.63814 28.9907 6.27461C29.8676 7.91109 30.1852 9.78944 29.8951 11.6232C29.4624 14.352 27.5986 17.3064 25.1925 20.0128C22.1654 23.4171 18.2568 26.4587 15.2953 28.1387C15.2035 28.1908 15.0995 28.2178 14.9939 28.2167C14.8884 28.2157 14.7849 28.1866 14.6942 28.1326Z" fill="currentColor"/>
</svg>
