<svg width="30" height="30" viewBox="0 0 30 30" fill="none" xmlns="http://www.w3.org/2000/svg">
<path fill-rule="evenodd" clip-rule="evenodd" d="M6.8003 11.3976C6.05246 10.6497 5.03973 10.2313 3.98246 10.2313C2.92741 10.2313 1.91251 10.6497 1.16684 11.3976C-0.388947 12.9534 -0.388947 15.4752 1.16684 17.031L9.03496 24.8991C9.78279 25.6469 10.7955 26.0654 11.8528 26.0654C12.9078 26.0676 13.9205 25.647 14.6684 24.8991L28.8332 10.7343C30.389 9.18072 30.389 6.6589 28.8332 5.10311V5.10088C28.0853 4.35528 27.0726 3.93457 26.0175 3.93457C24.9603 3.93457 23.9476 4.35522 23.1997 5.10088L12.1822 16.1184C12.0954 16.2053 11.9752 16.2564 11.8528 16.2564C11.7282 16.2564 11.6079 16.2052 11.5212 16.1184L6.8003 11.3976ZM5.8877 12.3079L10.6086 17.031C10.938 17.3604 11.3853 17.5452 11.8527 17.5452C12.3179 17.5452 12.7653 17.3604 13.0947 17.031C15.1713 14.9544 20.8604 9.26533 24.1122 6.01348C24.6175 5.50823 25.303 5.22334 26.0175 5.22334C26.732 5.22334 27.4175 5.50823 27.9205 6.01348H27.9227C28.9733 7.0663 28.9733 8.77121 27.9227 9.82403C24.2926 13.452 17.386 20.3608 13.758 23.9888C13.2528 24.494 12.5672 24.7767 11.8528 24.7767C11.1383 24.7767 10.4528 24.494 9.94756 23.9888L2.07722 16.1184C1.02663 15.0678 1.02663 13.3607 2.07722 12.3101C2.58247 11.8049 3.26802 11.52 3.98246 11.52C4.69695 11.52 5.38244 11.8027 5.8877 12.3079Z" fill="currentColor"/>
</svg>
