<svg width="18" height="18" viewBox="0 0 18 18" fill="none" xmlns="http://www.w3.org/2000/svg">
<g fill="currentColor">
<path d="M3.4746 0.954611C2.91473 1.17234 2.44126 1.46264 1.96779 1.93611C1.49432 2.40613 1.20402 2.88305 0.986289 3.43947C0.775473 3.9786 0.633778 4.59722 0.592306 5.50269C0.550834 6.40816 0.540466 6.69846 0.540466 9.00706C0.540466 11.3157 0.550834 11.606 0.592306 12.5114C0.633778 13.4169 0.778929 14.0355 0.986289 14.5747C1.20402 15.1345 1.49432 15.608 1.96779 16.0815C2.44126 16.5549 2.91473 16.8452 3.4746 17.063C4.01373 17.2738 4.63235 17.4155 5.53782 17.4569C6.44329 17.4984 6.7336 17.5088 9.04219 17.5088C11.3508 17.5088 11.6411 17.4984 12.5466 17.4569C13.452 17.4155 14.0707 17.2703 14.6098 17.063C15.1697 16.8452 15.6431 16.5549 16.1166 16.0815C16.5901 15.608 16.8804 15.1345 17.0981 14.5747C17.3089 14.0355 17.4506 13.4169 17.4921 12.5114C17.5336 11.606 17.5439 11.3157 17.5439 9.00706C17.5439 6.69846 17.5336 6.40816 17.4921 5.50269C17.4506 4.59722 17.3055 3.9786 17.0981 3.43947C16.8804 2.88305 16.5901 2.40613 16.1201 1.93611C15.6466 1.46264 15.1731 1.17234 14.6132 0.954611C14.0741 0.743796 13.4555 0.602101 12.55 0.560629C11.6446 0.519157 11.3542 0.508789 9.04565 0.508789C6.73705 0.508789 6.44675 0.519157 5.54128 0.560629C4.63235 0.598645 4.01373 0.743796 3.4746 0.954611ZM12.4774 2.08818C13.3069 2.12619 13.7562 2.26443 14.0568 2.38193C14.4543 2.53745 14.7377 2.72062 15.0349 3.01784C15.3321 3.31505 15.5153 3.59844 15.6708 3.99588C15.7883 4.29655 15.9265 4.74583 15.9645 5.57527C16.006 6.47037 16.0129 6.73993 16.0129 9.01052C16.0129 11.2811 16.0026 11.5507 15.9645 12.4458C15.9265 13.2752 15.7883 13.7245 15.6708 14.0252C15.5153 14.4226 15.3321 14.706 15.0349 15.0032C14.7377 15.3004 14.4543 15.4836 14.0568 15.6391C13.7562 15.7566 13.3069 15.8948 12.4774 15.9329C11.5823 15.9743 11.3128 15.9812 9.04219 15.9812C6.77161 15.9812 6.50204 15.9709 5.60694 15.9329C4.77751 15.8948 4.32823 15.7566 4.02756 15.6391C3.63012 15.4836 3.34673 15.3004 3.04951 15.0032C2.7523 14.706 2.56913 14.4226 2.41361 14.0252C2.29611 13.7245 2.15787 13.2752 2.11985 12.4458C2.07838 11.5507 2.07147 11.2811 2.07147 9.01052C2.07147 6.73993 2.08184 6.47037 2.11985 5.57527C2.15787 4.74583 2.29611 4.29655 2.41361 3.99588C2.56913 3.59844 2.7523 3.31505 3.04951 3.01784C3.34673 2.72062 3.63012 2.53745 4.02756 2.38193C4.32823 2.26443 4.77751 2.12619 5.60694 2.08818C6.50204 2.0467 6.77161 2.03979 9.04219 2.03979C11.3128 2.03979 11.5823 2.0467 12.4774 2.08818Z"/>
<path d="M4.6773 9.01052C4.6773 11.4228 6.63339 13.3754 9.04221 13.3754C11.451 13.3754 13.4071 11.4193 13.4071 9.01052C13.4071 6.60169 11.4545 4.64561 9.04221 4.64561C6.62993 4.64561 4.6773 6.59824 4.6773 9.01052ZM11.8761 9.01052C11.8761 10.5761 10.6078 11.8444 9.04221 11.8444C7.47665 11.8444 6.2083 10.5761 6.2083 9.01052C6.2083 7.44495 7.47665 6.17661 9.04221 6.17661C10.6078 6.17661 11.8761 7.44495 11.8761 9.01052Z"/>
<path d="M13.5834 5.49232C14.1464 5.49232 14.6029 5.03587 14.6029 4.47281C14.6029 3.90974 14.1464 3.45329 13.5834 3.45329C13.0203 3.45329 12.5638 3.90974 12.5638 4.47281C12.5638 5.03587 13.0203 5.49232 13.5834 5.49232Z"/>
</g>
</svg>
