<svg xmlns="http://www.w3.org/2000/svg" width="431" height="108" fill="none" viewBox="0 0 431 108"><path fill="#1B40F0" fill-rule="evenodd" d="M.4 50.41a53.797 53.797 0 0 1 5.43-20.309l18.624 10.753c1.566.903 2.462 2.456 2.462 4.264v.368a4.934 4.934 0 0 1-4.923 4.924H.4Zm5.428 27.48A53.792 53.792 0 0 1 .4 57.59h21.593a4.933 4.933 0 0 1 4.924 4.923v.36c0 1.809-.897 3.36-2.462 4.264L5.828 77.891Zm18.456 21.082A54.462 54.462 0 0 1 9.428 84.117l18.63-10.758c1.566-.904 3.358-.904 4.926 0l.3.175a4.933 4.933 0 0 1 1.803 6.726L24.284 98.972ZM50.81 108a53.775 53.775 0 0 1-20.301-5.429l10.81-18.72a4.932 4.932 0 0 1 6.725-1.803l.304.176c1.566.903 2.462 2.456 2.462 4.263V108Zm27.481-5.428A53.768 53.768 0 0 1 57.99 108V86.488c0-1.808.896-3.36 2.462-4.264l.304-.177a4.934 4.934 0 0 1 6.726 1.804l10.81 18.721ZM99.376 84.11a54.414 54.414 0 0 1-14.86 14.862L73.713 80.26a4.934 4.934 0 0 1 1.802-6.726l.31-.179c1.566-.903 3.358-.903 4.924 0L99.376 84.11ZM108.4 57.59a53.801 53.801 0 0 1-5.432 20.31L84.345 67.145c-1.566-.904-2.462-2.456-2.462-4.263v-.369a4.933 4.933 0 0 1 4.924-4.923l21.593-.002Zm-5.428-27.481A53.79 53.79 0 0 1 108.4 50.41H86.806a4.934 4.934 0 0 1-4.923-4.924v-.36c0-1.809.896-3.36 2.463-4.264l18.626-10.754ZM84.516 9.028a54.411 54.411 0 0 1 14.856 14.856l-18.63 10.755c-1.566.905-3.359.905-4.925 0l-.302-.174a4.936 4.936 0 0 1-1.802-6.727l10.803-18.71ZM58.004 0a53.802 53.802 0 0 1 20.287 5.427L67.482 24.15a4.933 4.933 0 0 1-6.726 1.802l-.29-.167c-1.566-.904-2.462-2.456-2.462-4.264V0ZM30.51 5.427A53.822 53.822 0 0 1 50.796 0v21.52c0 1.807-.896 3.36-2.462 4.264l-.29.167a4.931 4.931 0 0 1-6.726-1.802L30.508 5.427ZM9.425 23.89A54.374 54.374 0 0 1 24.284 9.027L35.087 27.74a4.934 4.934 0 0 1-1.803 6.726l-.309.178c-1.566.904-3.358.904-4.923 0L9.425 23.89Z" clip-rule="evenodd"/><path fill="currentColor" d="M60.918 38.417c.102-.47-.467-.781-.8-.44L41.98 56.493c-.295.302-.083.814.338.814l9.33-3.075c.064-.02.15.096.136.162l-3.353 15.345c-.103.469.466.78.8.439l18.137-18.514c.295-.302.083-.814-.337-.814l-9.33 3.074c-.064.021-.151-.095-.136-.161l3.353-15.345ZM137.793 70v-3.943l15.678-21.998h-15.709v-5.477h24.055v3.942l-15.694 22h15.725V70h-24.055Zm34.567 0h-7.118l10.846-31.418h8.56L195.479 70h-7.118l-7.87-24.239h-.246L172.36 70Zm-.445-12.35h16.814v5.186h-16.814V57.65ZM199.26 70V38.582h12.396c2.372 0 4.397.424 6.075 1.273 1.687.839 2.971 2.03 3.85 3.575.89 1.534 1.335 3.339 1.335 5.415 0 2.086-.45 3.881-1.35 5.385-.9 1.493-2.204 2.638-3.912 3.436-1.698.798-3.753 1.197-6.167 1.197h-8.299v-5.34h7.225c1.268 0 2.322-.173 3.16-.52.839-.349 1.463-.87 1.872-1.566.419-.695.629-1.56.629-2.592 0-1.043-.21-1.923-.629-2.639-.409-.716-1.038-1.258-1.887-1.626-.839-.378-1.897-.567-3.176-.567h-4.479V70h-6.643Zm16.967-14.298L224.036 70h-7.333l-7.64-14.298h7.164Zm8.235-17.12h7.44l7.164 13.53h.307l7.164-13.53h7.44l-11.459 20.311V70h-6.597V58.893l-11.459-20.311ZM259.815 70h-7.119l10.847-31.418h8.56L282.933 70h-7.118l-7.87-24.239h-.245L259.815 70Zm-.445-12.35h16.813v5.186H259.37V57.65ZM297.852 70h-11.137V38.582h11.229c3.161 0 5.881.629 8.162 1.887 2.281 1.248 4.035 3.042 5.262 5.384 1.237 2.343 1.856 5.145 1.856 8.407 0 3.273-.619 6.086-1.856 8.438-1.227 2.352-2.992 4.157-5.293 5.415-2.291 1.258-5.032 1.887-8.223 1.887Zm-4.494-5.692h4.218c1.964 0 3.616-.347 4.955-1.043 1.35-.705 2.363-1.794 3.038-3.267.685-1.483 1.028-3.396 1.028-5.738 0-2.321-.343-4.218-1.028-5.691-.675-1.473-1.682-2.557-3.022-3.253-1.34-.695-2.992-1.043-4.955-1.043h-4.234v20.035ZM318.145 70V38.582h6.642v13.853h.414l11.307-13.853h7.962l-11.659 14.067L344.608 70h-7.947l-8.606-12.917-3.268 3.989V70h-6.642Zm36.427-31.418V70h-6.643V38.582h6.643Zm9.162 31.817c-1.013 0-1.882-.358-2.608-1.074-.716-.726-1.074-1.596-1.074-2.608 0-1.002.358-1.861 1.074-2.577.726-.716 1.595-1.074 2.608-1.074.982 0 1.841.358 2.577 1.074.737.716 1.105 1.575 1.105 2.577a3.46 3.46 0 0 1-.522 1.856 3.963 3.963 0 0 1-1.334 1.335 3.518 3.518 0 0 1-1.826.49Zm9.17-.399V38.582h12.58c2.311 0 4.239.342 5.783 1.028 1.544.685 2.705 1.636 3.482 2.853.778 1.207 1.166 2.598 1.166 4.173 0 1.227-.245 2.306-.736 3.237a6.357 6.357 0 0 1-2.025 2.27c-.849.583-1.82.997-2.915 1.243v.307a7.037 7.037 0 0 1 3.36 1.012c1.053.624 1.907 1.498 2.562 2.623.654 1.115.982 2.445.982 3.989 0 1.667-.415 3.155-1.243 4.464-.818 1.3-2.03 2.327-3.636 3.084-1.605.757-3.584 1.135-5.937 1.135h-13.423Zm6.643-5.43h5.415c1.851 0 3.201-.353 4.05-1.06.849-.715 1.273-1.666 1.273-2.853 0-.869-.209-1.636-.629-2.3-.419-.666-1.017-1.187-1.795-1.566-.767-.378-1.682-.567-2.746-.567h-5.568v8.345Zm0-12.841h4.924c.91 0 1.718-.158 2.424-.476.716-.327 1.278-.787 1.687-1.38.42-.593.629-1.304.629-2.133 0-1.135-.404-2.05-1.212-2.746-.797-.695-1.932-1.043-3.405-1.043h-5.047v7.778Zm20.077-13.147h7.44l7.165 13.53h.306l7.165-13.53h7.44l-11.46 20.311V70h-6.596V58.893l-11.46-20.311Z"/></svg>