<svg width="30" height="30" viewBox="0 0 30 30" fill="none" xmlns="http://www.w3.org/2000/svg">
<path fill-rule="evenodd" clip-rule="evenodd" d="M15.7263 29.6163L22.9255 19.4739C24.8585 16.7507 26 13.6256 26 10.6296C26 7.96522 25.0871 5.39738 23.0073 3.31173C20.8787 1.19055 17.9997 0 14.9989 0C11.9981 0 9.11914 1.19055 6.99057 3.31173C4.88508 5.42289 4 7.98493 4 10.6062C4 13.6749 5.19776 16.8328 7.07231 19.4739L14.2714 29.6163C14.3525 29.7346 14.4611 29.8314 14.5879 29.8982C14.7146 29.9651 14.8556 30 14.9989 30C15.1421 30 15.2831 29.9651 15.4098 29.8982C15.5366 29.8314 15.6452 29.7346 15.7263 29.6163ZM17.731 8.79256C18.3632 9.42644 18.7566 10.2605 18.8443 11.1527C18.932 12.0449 18.7085 12.94 18.2119 13.6854C17.7152 14.4309 16.9762 14.9806 16.1207 15.2409C15.2652 15.5012 14.3462 15.4559 13.5203 15.1129C12.6943 14.7698 12.0125 14.1502 11.5911 13.3595C11.1697 12.5689 11.0346 11.6562 11.209 10.7769C11.3834 9.8976 11.8564 9.10615 12.5475 8.53741C13.2386 7.96866 14.1049 7.6578 14.9989 7.6578C15.5064 7.65713 16.009 7.75703 16.4779 7.95177C16.9467 8.14651 17.3726 8.43224 17.731 8.79256ZM14.9989 6.10208C16.2517 6.10203 17.4658 6.53762 18.4343 7.33463C19.4028 8.13164 20.0658 9.24076 20.3102 10.473C20.5547 11.7052 20.3655 12.9844 19.775 14.0924C19.1844 15.2005 18.229 16.0689 17.0715 16.5497C15.914 17.0305 14.6261 17.094 13.4272 16.7293C12.2283 16.3646 11.1926 15.5943 10.4965 14.5496C9.80047 13.505 9.48715 12.2506 9.60995 11.0003C9.73276 9.74996 10.2841 8.581 11.17 7.69261C11.6723 7.18762 12.2691 6.78714 12.9262 6.5142C13.5833 6.24125 14.2877 6.10115 14.9989 6.10208Z" fill="currentColor"/>
</svg>
