<svg width="30" height="30" viewBox="0 0 30 30" fill="none" xmlns="http://www.w3.org/2000/svg">
<path d="M24.4082 7.84729C24.3677 7.7941 24.3162 7.75019 24.2574 7.71851C24.1985 7.68682 24.1335 7.66811 24.0668 7.66361C24.0001 7.65912 23.9332 7.66895 23.8706 7.69244C23.808 7.71594 23.7511 7.75255 23.7038 7.79983L7.79983 23.7039C7.75255 23.7512 7.71594 23.808 7.69244 23.8706C7.66895 23.9332 7.65912 24.0001 7.66361 24.0668C7.66811 24.1335 7.68682 24.1985 7.71851 24.2574C7.75019 24.3163 7.7941 24.3677 7.84729 24.4082C9.90007 25.9791 12.415 26.8265 14.9999 26.8183C21.5166 26.8183 26.8183 21.5166 26.8183 14.9999C26.8265 12.415 25.9791 9.90005 24.4082 7.84729ZM14.9999 25.8808C12.8044 25.888 10.659 25.2241 8.85136 23.9781L23.9782 8.85136C25.2242 10.6591 25.888 12.8044 25.8808 14.9999C25.8808 20.9999 20.9999 25.8808 14.9999 25.8808ZM25.5233 4.47645C24.1452 3.07732 22.5037 1.96478 20.6936 1.20297C18.8835 0.44115 16.9405 0.04512 14.9766 0.0377038C13.0127 0.0302876 11.0668 0.411631 9.25098 1.15976C7.43516 1.90788 5.78536 3.00799 4.39667 4.39667C3.00799 5.78536 1.90788 7.43516 1.15976 9.25098C0.411631 11.0668 0.0302876 13.0127 0.0377038 14.9766C0.04512 16.9405 0.44115 18.8835 1.20297 20.6936C1.96478 22.5037 3.07732 24.1452 4.47645 25.5233C5.85461 26.9225 7.49605 28.035 9.30617 28.7968C11.1163 29.5586 13.0593 29.9547 15.0232 29.9621C16.9871 29.9695 18.933 29.5882 20.7488 28.84C22.5646 28.0919 24.2144 26.9918 25.6031 25.6031C26.9918 24.2144 28.0919 22.5646 28.84 20.7488C29.5882 18.933 29.9695 16.9871 29.9621 15.0232C29.9547 13.0593 29.5586 11.1163 28.7968 9.30617C28.035 7.49605 26.9225 5.85461 25.5233 4.47645ZM14.9999 28.9452C7.31046 28.9452 1.05458 22.6893 1.05458 14.9999C1.05458 7.31046 7.31046 1.05458 14.9999 1.05458C22.6893 1.05458 28.9452 7.31046 28.9452 14.9999C28.9452 22.6893 22.6893 28.9452 14.9999 28.9452ZM22.3358 5.93304C22.3313 5.86632 22.3126 5.80134 22.281 5.74245C22.2493 5.68356 22.2054 5.63213 22.1522 5.59161C20.0995 4.02081 17.5847 3.17341 14.9999 3.18153C8.48315 3.18153 3.18153 8.48315 3.18153 14.9999C3.17334 17.5848 4.02075 20.0997 5.59161 22.1525C5.63213 22.2057 5.68356 22.2496 5.74245 22.2813C5.80134 22.3129 5.86632 22.3316 5.93304 22.3361C5.94352 22.3369 5.95401 22.3372 5.9645 22.3372C6.02606 22.3372 6.08701 22.3251 6.14389 22.3016C6.20076 22.278 6.25244 22.2435 6.29597 22.2L22.2 6.29597C22.2472 6.24868 22.2838 6.19183 22.3073 6.12924C22.3308 6.06664 22.3406 5.99974 22.3361 5.93304H22.3358ZM6.02163 21.1484C4.77568 19.3407 4.11185 17.1954 4.11903 14.9999C4.11903 8.99989 8.99989 4.11903 14.9999 4.11903C17.1954 4.11186 19.3407 4.77572 21.1484 6.02169L6.02163 21.1484Z" fill="currentColor"/>
</svg>
