<svg xmlns="http://www.w3.org/2000/svg" width="275" height="20" viewBox="0 0 275 20"><path fill="#e7e9ea" d="M39.78.078c-4.84 0-8.239 2.58-8.27 6.258 0 2.716 2.431 4.237 4.283 5.16 1.851.923 2.58 1.518 2.535 2.35 0 1.29-1.524 1.826-2.924 1.852a10.27 10.27 0 0 1-5.031-1.193l-.885 4.148a14.84 14.84 0 0 0 5.445 1c5.162 0 8.498-2.543 8.518-6.453 0-5-6.903-5.269-6.857-7.502v-.033c0-.678.646-1.393 2.078-1.586a9.342 9.342 0 0 1 4.824.846l.86-4.008A13.15 13.15 0 0 0 39.78.079zm161.8.127v19.79h6.393V8.245h.617l3.506 11.75h4.947l3.506-11.75h.412v11.75h6.6V.205h-6.393c-.825 0-2.887-.207-3.71 2.68-.414 1.443-1.446 4.536-2.683 9.072h-.412c-1.237-4.33-2.06-7.216-2.68-9.072-.824-2.886-2.682-2.682-3.3-2.682h-6.804zm28.66 0v19.79h6.186s2.063-.206 2.887-2.062l4.33-9.689h.412v11.75h6.598V.204h-6.186s-1.857.207-2.682 2.062l-4.328 9.691h-.619V.197h-6.598zm-126.6.076a9.78 9.78 0 0 0-6.363 2.08 9.778 9.778 0 0 1 0 15.37 9.78 9.78 0 0 0 10.31 1.105 9.783 9.783 0 0 0 5.506-8.79 9.78 9.78 0 0 0-9.455-9.769zM.44.426.329.975A20.73 20.73 0 0 1 5.155 2.58a2.07 2.07 0 0 1 1.154 1.666l3.91 15.11h5.16L23.317.426h-5.123l-5.09 12.9-2.066-10.97A2.277 2.277 0 0 0 8.786.42H.44zm24.97 0-4.045 18.92h4.896L30.3.426h-4.891zm27.34 0a2.234 2.234 0 0 0-2.09 1.387l-7.311 17.54h5.16l1.02-2.826h6.266l.588 2.826h4.516l-4-18.93H52.75zm.72 5.123 1.466 7.096H50.89l2.58-7.096zm126.8.347v3.637a2.424 2.424 0 0 0-1.987-.914 2.704 2.704 0 0 0-2.703 2.828 2.702 2.702 0 0 0 .742 1.998 2.708 2.708 0 0 0 1.96.84 2.404 2.404 0 0 0 1.989-.918v.81h.855v-8.28h-.855zm-61.42.227v8.043h.927V7.193l2.8 6.08h.973l2.805-6.123v7.027h.924V6.15h-1.41l-2.807 6.086-2.811-6.113h-1.4zm23.93.875v1.73h-1.188v.805h1.189v2.725c0 1.368.696 2.01 1.869 2.01a2.66 2.66 0 0 0 1.623-.54l-.407-.648a1.994 1.994 0 0 1-1.146.383c-.632 0-1.08-.373-1.08-1.227V9.533h2.352l-.005-.805h-2.352v-1.73h-.854zM131.76 8.62a2.7 2.7 0 0 0-1.063.219 2.692 2.692 0 0 0-1.64 2.609 2.719 2.719 0 0 0 .167 1.076 2.706 2.706 0 0 0 2.537 1.762 2.404 2.404 0 0 0 1.99-.918v.81h.857V8.724h-.857v.809a2.417 2.417 0 0 0-1.99-.914zm18.05 0a2.667 2.667 0 0 0-1.071.21 2.686 2.686 0 0 0-1.475 1.548 2.69 2.69 0 0 0-.155 1.082 2.665 2.665 0 0 0 .16 1.09 2.667 2.667 0 0 0 2.59 1.736 3.048 3.048 0 0 0 2.239-.853l-.46-.584a2.522 2.522 0 0 1-1.724.685 1.857 1.857 0 0 1-1.94-1.777h4.368a2.922 2.922 0 0 0 0-.324c-.011-1.654-1.082-2.813-2.531-2.813zm6.59 0a1.914 1.914 0 0 0-1.62.875v-.768h-.854v5.48h.854v-3.052c0-1.08.628-1.723 1.482-1.723a2.123 2.123 0 0 1 .94.215l.204-.842v-.001a2.36 2.36 0 0 0-1.006-.184zm10.19 0a2.705 2.705 0 0 0-2.702 2.826 2.702 2.702 0 0 0 .742 2 2.708 2.708 0 0 0 1.96.84 2.422 2.422 0 0 0 1.989-.918v.81h.853V8.728h-.853v.81a2.435 2.435 0 0 0-1.988-.919zm7.33 0a1.917 1.917 0 0 0-1.622.877v-.768h-.85v5.45h.856v-3.05c0-1.032.61-1.697 1.459-1.697a2.165 2.165 0 0 1 .945.215l.205-.842a2.377 2.377 0 0 0-.992-.185zm-13.03.018a2.833 2.833 0 1 0 0 5.664 2.636 2.636 0 0 0 2.022-.86l-.541-.584a2.2 2.2 0 0 1-1.508.639 2.034 2.034 0 0 1-1.883-2.027 2.035 2.035 0 0 1 1.883-2.027 2.085 2.085 0 0 1 1.488.633l.539-.594v-.002a2.633 2.633 0 0 0-2-.842zm-22.4.015c-1.297 0-2.161.594-2.161 1.621 0 .811.571 1.357 1.799 1.508l.648.076c.773.092 1.141.358 1.141.795 0 .573-.583.881-1.502.881a2.864 2.864 0 0 1-1.887-.594l-.394.643a3.782 3.782 0 0 0 2.27.697c1.465 0 2.4-.647 2.4-1.686 0-.892-.675-1.369-1.832-1.52l-.643-.082c-.714-.087-1.109-.231-1.109-.761s.51-.86 1.287-.86a3.394 3.394 0 0 1 1.783.514l.363-.639a3.99 3.99 0 0 0-2.162-.594zm11.28.737a1.703 1.703 0 0 1 1.704 1.67h-3.492a1.766 1.766 0 0 1 1.789-1.67zm16.86.03a1.948 1.948 0 0 1 1.47 3.298 1.948 1.948 0 0 1-3.352-1.27 1.948 1.948 0 0 1 1.883-2.027zm11.95.007a1.947 1.947 0 1 1-.874 3.758 1.943 1.943 0 0 1-1.25-1.738 1.947 1.947 0 0 1 2.125-2.02zm-45.99.134a1.947 1.947 0 0 1-1.411 3.63 1.952 1.952 0 0 1-1.252-1.743 1.925 1.925 0 0 1 .12-.769 1.927 1.927 0 0 1 1.062-1.1 1.947 1.947 0 0 1 1.482-.018zm120.9.13V20h6.187v-5.98h7.012c3.299 0 6.185-1.856 7.01-4.33h-20.21z"/><path fill="#6c777e" d="M252.9.205c.413 4.33 4.124 8.248 8.041 8.248h12.99c.825-3.71-1.649-8.248-7.01-8.248h-14.02zM90.9.28a9.774 9.774 0 1 0 6.361 17.46 9.759 9.759 0 0 1-3.729-7.686 9.756 9.756 0 0 1 3.729-7.687A9.774 9.774 0 0 0 90.9.284z"/><path fill="#b6bbbf" d="M97.19 2.365a9.755 9.755 0 0 0-3.725 7.684 9.759 9.759 0 0 0 3.725 7.682c4.973-3.915 4.973-11.45 0-15.37z"/></svg>