<svg width="30" height="30" viewBox="0 0 30 30" fill="none" xmlns="http://www.w3.org/2000/svg">
<path fill-rule="evenodd" clip-rule="evenodd" d="M29.4508 26.3867C29.2516 26.5852 29.0114 26.8392 28.7567 27.1077C28.1211 27.7823 27.3271 28.6209 26.8294 28.9609C24.211 30.7502 20.7079 29.894 18.2301 28.8616C14.9613 27.4997 11.4026 24.9893 8.20717 21.7935C5.0088 18.5975 2.49864 15.0376 1.13669 11.7707C0.10549 9.29231 -0.752459 5.78856 1.03709 3.16954C1.37692 2.67152 2.21741 1.87872 2.89109 1.2419C3.1606 0.987962 3.41255 0.748032 3.61176 0.549467C3.96543 0.197555 4.44405 0 4.94297 0C5.4419 0 5.92052 0.197555 6.27419 0.549467L11.092 5.36589C11.4437 5.71954 11.6412 6.19804 11.6412 6.69681C11.6412 7.19559 11.4437 7.67408 11.092 8.02774L9.77958 9.33754C9.34127 9.77264 9.05517 10.3376 8.96386 10.9485C8.87255 11.5593 8.98092 12.1832 9.27283 12.7275C11.078 16.1346 13.8649 18.921 17.2723 20.7256C17.8164 21.0174 18.4403 21.1256 19.0509 21.0342C19.6615 20.9427 20.2263 20.6564 20.6611 20.218L21.9703 18.9082C22.3239 18.5562 22.8026 18.3587 23.3015 18.3587C23.8004 18.3587 24.279 18.5562 24.6327 18.9082L29.4508 23.7254C29.8026 24.0789 30 24.5573 30 25.056C30 25.5547 29.8026 26.0331 29.4508 26.3867Z" fill="currentColor"/>
</svg>
