<svg width="30" height="30" viewBox="0 0 30 30" fill="none" xmlns="http://www.w3.org/2000/svg">
<path d="M13.9287 1.60714C13.9287 0.719542 14.6482 0 15.5358 0C16.4234 0 17.143 0.719542 17.143 1.60714V28.3929C17.143 29.2805 16.4234 30 15.5358 30C14.6482 30 13.9287 29.2805 13.9287 28.3929V1.60714Z" fill="currentColor"/>
<path d="M28.3929 13.9286C29.2805 13.9286 30 14.6481 30 15.5357C30 16.4233 29.2805 17.1429 28.3929 17.1429L1.60714 17.1429C0.719541 17.1429 -3.87982e-08 16.4233 0 15.5357C3.87982e-08 14.6481 0.719543 13.9286 1.60714 13.9286L28.3929 13.9286Z" fill="currentColor"/>
</svg>
