<svg width="30" height="30" viewBox="0 0 30 30" fill="none" xmlns="http://www.w3.org/2000/svg">
<path d="M28.6483 26.9514L24.2391 22.5436C24.1945 22.4991 24.1373 22.4795 24.0881 22.4434C28.3815 17.315 28.1256 9.6449 23.307 4.82734C20.8381 2.35934 17.5556 1 14.0646 1C10.5732 1 7.29087 2.35934 4.82231 4.82734C-0.274104 9.92259 -0.274104 18.2132 4.82231 23.3078C7.29087 25.7766 10.5732 27.1359 14.0646 27.1359C17.1643 27.1359 20.096 26.0595 22.4429 24.0916C22.4785 24.1403 22.4978 24.1967 22.5419 24.2406L26.9511 28.6484C27.1855 28.8827 27.4927 29 27.7998 29C28.107 29 28.4145 28.8829 28.6485 28.6484C29.1172 28.1796 29.1172 27.4202 28.6483 26.9514ZM14.0646 24.7359C11.2142 24.7359 8.5348 23.6258 6.51951 21.6109C2.35921 17.4516 2.35921 10.6845 6.51951 6.52431C8.5348 4.50932 11.2144 3.40002 14.0646 3.40002C16.9144 3.40002 19.5943 4.50932 21.6096 6.52415C25.7699 10.6843 25.7699 17.4514 21.6096 21.6108C19.594 23.6256 16.9145 24.7359 14.0646 24.7359Z" fill="currentColor"/>
</svg>
