<svg width="30" height="30" viewBox="0 0 30 30" fill="none" xmlns="http://www.w3.org/2000/svg">
<path d="M14.4294 1.75623C14.609 1.20344 15.391 1.20344 15.5706 1.75623L18.233 9.95016C18.3133 10.1974 18.5437 10.3647 18.8036 10.3647H27.4192C28.0005 10.3647 28.2421 11.1085 27.7719 11.4502L20.8017 16.5143C20.5914 16.6671 20.5035 16.9379 20.5838 17.1851L23.2461 25.379C23.4258 25.9318 22.7931 26.3915 22.3228 26.0498L15.3527 20.9857C15.1424 20.8329 14.8576 20.8329 14.6473 20.9857L7.67716 26.0498C7.20693 26.3915 6.57424 25.9318 6.75385 25.379L9.41622 17.1851C9.49655 16.9379 9.40855 16.6671 9.19826 16.5143L2.22809 11.4502C1.75786 11.1085 1.99953 10.3647 2.58076 10.3647H11.1964C11.4563 10.3647 11.6867 10.1974 11.767 9.95016L14.4294 1.75623Z" fill="currentColor"/>
</svg>
