<svg width="80" height="80" viewBox="0 0 80 80" fill="none" xmlns="http://www.w3.org/2000/svg">
<path d="M78.5287 28.4783C77.6144 27.4521 76.3649 26.7847 75.0036 26.5952V26.5924L53.7422 23.6554L45.3286 3.55103C44.1 0.608311 40.7186 -0.781271 37.776 0.447273C36.3732 1.033 35.2578 2.14822 34.6723 3.55103L26.2586 23.6554L4.99719 26.5924C1.82949 27.0333 -0.381014 29.959 0.0599157 33.1267C0.249412 34.4879 0.916833 35.7374 1.94299 36.6517L17.9619 50.9364L14.6705 73.3519C14.314 75.628 15.3594 77.8958 17.3218 79.1029C19.2566 80.3401 21.7453 80.2939 23.6328 78.9857L40.0002 67.855L56.3677 78.9971C59.0088 80.7896 62.603 80.1018 64.3957 77.4607C65.2103 76.2605 65.5439 74.7979 65.3301 73.3633L62.0389 50.9391L78.0578 36.6544C80.4456 34.5268 80.6565 30.8661 78.5287 28.4783ZM57.0849 47.7108C56.3682 48.3511 56.0215 49.3087 56.162 50.2593L59.5903 74.2577L41.6145 62.0357C40.6454 61.3771 39.3723 61.3771 38.4032 62.0357L20.3216 74.1834L23.8385 50.2479C23.9751 49.3011 23.6286 48.3488 22.9156 47.711L5.77393 32.2605L28.6524 29.1035C29.6541 28.9654 30.508 28.3081 30.8979 27.3751L40.0344 5.71383C40.0448 5.72655 40.0525 5.74111 40.0573 5.75668L49.0996 27.3638C49.4894 28.2967 50.3435 28.9541 51.3451 29.0922L74.2522 32.3891L57.0849 47.7108Z" fill="currentColor"/>
</svg>
