<?xml version="1.0" encoding="UTF-8"?>
<svg width="18.68" height="15.06" fill="none" version="1.1" viewBox="0 0 18.68 15.06" xmlns="http://www.w3.org/2000/svg">
 <path d="m1.127 7.372c4.373-1.905 7.289-3.161 8.748-3.768 4.166-1.733 5.031-2.034 5.595-2.044 0.1241-0.00219 0.4016 0.02857 0.5813 0.1744 0.1517 0.1231 0.1935 0.2895 0.2135 0.4062 0.0199 0.1168 0.0448 0.3827 0.025 0.5905-0.2257 2.372-1.202 8.128-1.699 10.78-0.2103 1.124-0.6243 1.501-1.025 1.538-0.8711 0.0801-1.532-0.5757-2.376-1.129-1.32-0.8654-2.066-1.404-3.348-2.249-1.481-0.976-0.5209-1.512 0.3231-2.389 0.2208-0.2294 4.059-3.72 4.133-4.037 0.0093-0.0396 0.0179-0.1873-0.0698-0.2652-0.0877-0.078-0.2171-0.0513-0.3105-0.0301-0.1325 0.03-2.242 1.424-6.327 4.182-0.5987 0.411-1.141 0.6113-1.627 0.6008-0.5356-0.0115-1.566-0.3028-2.332-0.5518-0.9394-0.3053-1.686-0.4668-1.621-0.9853 0.03386-0.2701 0.4058-0.5464 1.116-0.8288z" clip-rule="evenodd" fill="currentColor" fill-rule="evenodd"/>
</svg>
