<svg width="30" height="30" viewBox="0 0 30 30" fill="none" xmlns="http://www.w3.org/2000/svg">
<g fill="currentColor">
<path d="M15 16.4064C15.5178 16.4064 15.9375 15.9867 15.9375 15.4689V5.15626C15.9375 4.63852 15.5178 4.21875 15 4.21875C14.4823 4.21875 14.0625 4.63852 14.0625 5.15626V15.4689C14.0625 15.9867 14.4823 16.4064 15 16.4064Z"/>
<path d="M22.5001 0H7.49984C4.65682 0 2.34351 2.31332 2.34351 5.15633V20.1566C2.34351 22.9996 4.65682 25.3129 7.49984 25.3129H11.6565L14.196 29.5452C14.5585 30.1498 15.4391 30.1535 15.8039 29.5452L18.3434 25.3129H22.5001C25.3431 25.3129 27.6564 22.9996 27.6564 20.1566V5.15633C27.6564 2.31332 25.3431 0 22.5001 0ZM25.7814 20.1566C25.7814 21.966 24.3095 23.4379 22.5001 23.4379H17.8125C17.4832 23.4379 17.1779 23.6107 17.0086 23.8931L15 27.2407L12.9913 23.8931C12.822 23.6107 12.5167 23.4379 12.1874 23.4379H7.49984C5.69043 23.4379 4.21854 21.966 4.21854 20.1566V5.15633C4.21854 3.34693 5.69043 1.87503 7.49984 1.87503H22.5001C24.3095 1.87503 25.7814 3.34693 25.7814 5.15633V20.1566Z"/>
<path d="M15 21.094C15.7767 21.094 16.4062 20.4644 16.4062 19.6877C16.4062 18.9111 15.7767 18.2815 15 18.2815C14.2233 18.2815 13.5938 18.9111 13.5938 19.6877C13.5938 20.4644 14.2233 21.094 15 21.094Z"/>
</g>
</svg>
