<svg width="20" height="12" viewBox="0 0 20 12" fill="none" xmlns="http://www.w3.org/2000/svg">
<g clip-path="url(#clip0_50_5499)">
<path d="M0 0H20V12H0V0Z" fill="#E30A17"/>
<path d="M9.27752 6L12.2926 4.97147L10.4291 7.66437V4.33563L12.2926 7.02853L9.27752 6ZM9.48308 7.87157C9.09689 8.51236 8.52295 9.00412 7.84762 9.27285C7.17229 9.54158 6.4321 9.57275 5.73844 9.36166C5.04479 9.15057 4.43519 8.70864 4.00137 8.10238C3.56756 7.49611 3.33301 6.75831 3.33301 6C3.33301 5.24169 3.56756 4.50389 4.00137 3.89762C4.43519 3.29136 5.04479 2.84943 5.73844 2.63834C6.4321 2.42725 7.17229 2.45842 7.84762 2.72715C8.52295 2.99588 9.09689 3.48764 9.48308 4.12843C9.12244 3.70707 8.64857 3.41048 8.12403 3.27784C7.5995 3.14519 7.04898 3.18273 6.54519 3.38549C6.0414 3.58826 5.60804 3.94671 5.30234 4.41351C4.99664 4.88031 4.83298 5.43349 4.83298 6C4.83298 6.56651 4.99664 7.11969 5.30234 7.58649C5.60804 8.05329 6.0414 8.41174 6.54519 8.61451C7.04898 8.81727 7.5995 8.85481 8.12403 8.72216C8.64857 8.58952 9.12244 8.29293 9.48308 7.87157Z" fill="white"/>
</g>
<defs>
<clipPath id="clip0_50_5499">
<rect width="20" height="12" fill="white"/>
</clipPath>
</defs>
</svg>
