<svg width="18" height="18" viewBox="0 0 18 18" fill="none" xmlns="http://www.w3.org/2000/svg">
<g fill="currentColor">
<path d="M15.6024 1.75558C15.1551 1.34287 13.3476 0.0307455 9.32156 0.0129192C9.32156 0.0129192 4.57382 -0.273382 2.25936 1.84957C0.971006 3.1382 0.517785 5.02374 0.469978 7.36142C0.422171 9.6991 0.360319 14.0801 4.58327 15.2679H4.58732L4.58462 17.0805C4.58462 17.0805 4.55761 17.8144 5.04081 17.964C5.6253 18.1455 5.96832 17.5878 6.52634 16.9866C6.83263 16.6565 7.2556 16.1717 7.57431 15.8011C10.4624 16.0442 12.6837 15.4886 12.936 15.4065C13.5191 15.2174 16.8189 14.7945 17.3556 10.414C17.9095 5.89885 17.0876 3.04285 15.6024 1.75558ZM16.0918 10.0902C15.6388 13.7478 12.9625 13.9777 12.469 14.136C12.2591 14.2035 10.3082 14.6888 7.85494 14.5287C7.85494 14.5287 6.02693 16.734 5.45595 17.3074C5.36682 17.3971 5.26202 17.4333 5.19206 17.4155C5.09375 17.3914 5.06674 17.275 5.06782 17.1049C5.06944 16.8618 5.08349 14.0927 5.08349 14.0927C1.5112 13.101 1.71944 9.37228 1.75996 7.41976C1.80047 5.46724 2.16726 3.86773 3.25683 2.79194C5.21448 1.01876 9.24728 1.28372 9.24728 1.28372C12.6529 1.29858 14.2848 2.32413 14.6632 2.66769C15.9197 3.74348 16.5599 6.31777 16.0918 10.0891V10.0902Z"/>
<path d="M10.9788 7.48688C10.9204 7.48688 10.8643 7.46446 10.822 7.42424C10.7797 7.38402 10.7545 7.32909 10.7516 7.2708C10.713 6.49806 10.3489 6.11966 9.60585 6.07968C9.54665 6.07497 9.49163 6.04732 9.45253 6.00262C9.41343 5.95792 9.39334 5.89972 9.39655 5.84041C9.39975 5.78111 9.426 5.72541 9.4697 5.68519C9.51339 5.64497 9.57107 5.62341 9.63043 5.62511C10.6109 5.67913 11.1559 6.23904 11.2062 7.24812C11.2077 7.27798 11.2033 7.30785 11.1932 7.33601C11.1832 7.36417 11.1677 7.39008 11.1476 7.41225C11.1275 7.43442 11.1033 7.45243 11.0763 7.46523C11.0492 7.47804 11.02 7.48539 10.9901 7.48688H10.9788Z"/>
<path d="M12.1472 7.87891H12.1418C12.0814 7.87749 12.0241 7.85217 11.9824 7.80851C11.9408 7.76485 11.9181 7.70643 11.9195 7.64608C11.9371 6.86794 11.7148 6.2378 11.2399 5.71976C10.7651 5.20171 10.1182 4.92082 9.25581 4.85761C9.1955 4.85321 9.1394 4.82502 9.09987 4.77926C9.06033 4.73349 9.0406 4.6739 9.045 4.61358C9.04941 4.55326 9.07759 4.49717 9.12336 4.45764C9.16912 4.4181 9.22872 4.39837 9.28903 4.40277C10.2595 4.47381 11.0287 4.81332 11.5757 5.41158C12.1226 6.00984 12.3946 6.76665 12.3746 7.65554C12.3734 7.7151 12.3489 7.77183 12.3064 7.81358C12.2639 7.85533 12.2068 7.87878 12.1472 7.87891Z"/>
<path d="M13.3429 8.34572C13.2828 8.34565 13.2252 8.32186 13.1826 8.27952C13.1399 8.23719 13.1157 8.17973 13.1152 8.11965C13.1047 6.72784 12.7039 5.66474 11.8898 4.87012C11.0855 4.08684 10.0694 3.68494 8.86933 3.6763C8.83942 3.67619 8.80984 3.6702 8.78225 3.65866C8.75467 3.64712 8.72963 3.63025 8.70856 3.60904C8.66601 3.56618 8.64223 3.50818 8.64245 3.4478C8.64266 3.38741 8.66685 3.32958 8.70971 3.28703C8.75256 3.24448 8.81056 3.2207 8.87095 3.22092H8.87284C10.1941 3.23064 11.3161 3.67576 12.2077 4.54439C13.0993 5.41301 13.559 6.6171 13.5709 8.11694C13.5713 8.17729 13.5478 8.23533 13.5054 8.27833C13.4631 8.32132 13.4054 8.34576 13.3451 8.34626L13.3429 8.34572Z"/>
<path d="M9.66311 10.309C9.66311 10.309 9.98317 10.336 10.1555 10.1237L10.4915 9.701C10.6535 9.49141 11.0446 9.35771 11.4276 9.57109C11.7147 9.73477 11.9933 9.91272 12.2625 10.1043C12.5167 10.2912 13.0388 10.7255 13.0388 10.7255C13.2867 10.9348 13.344 11.2422 13.1752 11.5663L13.1738 11.573C12.9879 11.8953 12.7518 12.186 12.4745 12.4341C12.4713 12.4357 12.4713 12.4373 12.4683 12.439C12.2274 12.6403 11.9907 12.7547 11.7582 12.7823C11.724 12.7882 11.6892 12.7904 11.6545 12.7887C11.552 12.7897 11.45 12.774 11.3526 12.7423L11.345 12.7312C10.9868 12.6302 10.3889 12.3774 9.39301 11.828C8.81673 11.5138 8.2681 11.1514 7.75299 10.7447C7.4948 10.5409 7.24852 10.3225 7.01536 10.0905L6.94081 10.0159C6.93244 10.0078 6.92433 9.99946 6.91596 9.99109C6.68397 9.75793 6.46556 9.51164 6.26179 9.25346C5.85508 8.7384 5.49267 8.18986 5.17843 7.6137C4.62906 6.61759 4.37625 6.02014 4.27523 5.66145L4.26416 5.65389C4.23249 5.5564 4.21689 5.45441 4.21797 5.35192C4.21608 5.31722 4.21817 5.28243 4.22418 5.2482C4.25317 5.0161 4.36778 4.77923 4.56802 4.53758C4.56964 4.53461 4.57126 4.53461 4.57288 4.53137C4.82091 4.25406 5.11158 4.0181 5.43394 3.83236L5.4407 3.83074C5.76481 3.66193 6.07218 3.71919 6.28123 3.96579C6.28286 3.96741 6.71636 4.48788 6.90246 4.74204C7.09402 5.01153 7.27196 5.29044 7.43562 5.57772C7.649 5.96045 7.5153 6.35236 7.30571 6.51387L6.88301 6.84987C6.66963 7.02219 6.69772 7.34226 6.69772 7.34226C6.69772 7.34226 7.3238 9.71181 9.66311 10.309Z"/>
</g>
</svg>
