<svg width="18" height="18" viewBox="0 0 18 18" fill="none" xmlns="http://www.w3.org/2000/svg">
<path d="M9.04639 0C4.13033 0 0.128766 4.00104 0.126681 8.91866C0.126159 10.4906 0.537004 12.025 1.3175 13.3775L0.052124 18L4.78049 16.7596C6.08341 17.4703 7.55004 17.8446 9.04274 17.8451H9.04639C13.9619 17.8451 17.9635 13.8436 17.9656 8.92596C17.9666 6.54275 17.0396 4.30188 15.3556 2.61627C13.6715 0.930136 11.4322 0.00104275 9.04639 0ZM9.04639 16.3389H9.04326C7.71323 16.3389 6.40822 15.9807 5.27006 15.3055L4.99946 15.1449L2.19394 15.8811L2.94263 13.1455L2.76641 12.865C2.02449 11.6846 1.63242 10.3201 1.63294 8.91971C1.6345 4.83212 4.96036 1.50678 9.04952 1.50678C11.0297 1.5073 12.891 2.27946 14.2904 3.68092C15.6903 5.08186 16.4604 6.94473 16.4598 8.92544C16.4583 13.013 13.1324 16.3389 9.04639 16.3389ZM13.1126 10.7868C12.89 10.6752 11.794 10.1361 11.5897 10.0615C11.3853 9.98697 11.2367 9.94995 11.0881 10.1731C10.9395 10.3962 10.5125 10.8983 10.3827 11.0469C10.2529 11.196 10.1225 11.2143 9.89988 11.1027C9.67725 10.9911 8.9588 10.7555 8.10791 9.99635C7.44524 9.40563 6.9979 8.6757 6.86808 8.45255C6.73826 8.22941 6.854 8.10897 6.9661 7.99791C7.0662 7.89833 7.18872 7.73775 7.3003 7.6074C7.41187 7.47706 7.44889 7.38425 7.52293 7.23514C7.59696 7.08655 7.55994 6.9562 7.50416 6.84463C7.44837 6.73306 7.00259 5.63608 6.81698 5.18978C6.63607 4.75547 6.45254 4.81387 6.31542 4.80709C6.1856 4.80031 6.037 4.79927 5.88841 4.79927C5.73982 4.79927 5.49842 4.85506 5.29404 5.07821C5.08966 5.30136 4.51406 5.84046 4.51406 6.93743C4.51406 8.03441 5.31281 9.09437 5.42387 9.24296C5.53544 9.39155 6.99529 11.6429 9.23096 12.6079C9.76276 12.8373 10.1778 12.9745 10.5016 13.0772C11.0354 13.2466 11.5214 13.2226 11.9051 13.1653C12.3331 13.1011 13.2237 12.6262 13.4093 12.1053C13.5949 11.585 13.5949 11.1387 13.5391 11.0454C13.4833 10.9526 13.3347 10.8968 13.1121 10.7852L13.1126 10.7868Z" fill="currentColor"/>
</svg>
